# xmcd
# Track frame offsets:
# 150
# 17130
# 31326
# 53227
# 76195
# 87999
# 102699
# 117864
# 136085
# 159254
#
# Disc length: 2446 seconds
# Revision: 0
# Processed by: cddbd v1.5.2PL0 Copyright (c) Steve Scherf et al.
# Submitted via: VisiTrax 2.11.3.279 - For more info visit www.synapsa.com
#
DISCID=74098c0a
DTITLE=Danny O'Keefe - The Global Blues
DYEAR=1979
DGENRE=Blues
TTITLE0=The Global Blues
TTITLE1=Livin' in the Modern Age
TTITLE2=Falsetto Goodbye
TTITLE3=The Street
TTITLE4=On the Wheel of Song
TTITLE5=The Jimmy Hoffa Mem. BLDG. Blues
TTITLE6=(Keep Your) Back to the Wall
TTITLE7=Square Sun
TTITLE8=Save the Whales
TTITLE9=Atlas
EXTD=Produced by Joy Lewis and Danny O'Keefe
EXTT0=
EXTT1=
EXTT2=
EXTT3=
EXTT4=
EXTT5=
EXTT6=
EXTT7=
EXTT8=
EXTT9=
PLAYORDER=
